<?xml version="1.0" standalone="no"?>
<!DOCTYPE svg PUBLIC "-//W3C//DTD SVG 20010904//EN"
 "http://www.w3.org/TR/2001/REC-SVG-20010904/DTD/svg10.dtd">
<svg version="1.0" xmlns="http://www.w3.org/2000/svg"
 width="225.000000pt" height="225.000000pt" viewBox="0 0 225.000000 225.000000"
 preserveAspectRatio="xMidYMid meet">

<g transform="translate(0.000000,225.000000) scale(0.100000,-0.100000)"
fill="#000000" stroke="none">
<path d="M726 1914 c-86 -19 -215 -66 -271 -99 -82 -47 -107 -77 -156 -180
-107 -223 -187 -546 -205 -821 l-7 -110 44 -55 c52 -64 158 -138 249 -173 89
-35 214 -66 266 -66 41 0 45 3 89 61 26 33 46 62 44 63 -2 2 -29 11 -59 21
-111 36 -257 113 -282 149 -16 23 -8 56 15 67 20 9 33 5 86 -29 79 -51 186
-96 298 -124 76 -20 114 -23 288 -23 174 0 212 3 288 23 112 28 219 73 298
124 53 34 66 38 86 29 23 -11 31 -44 15 -67 -25 -36 -171 -113 -282 -149 -30
-10 -57 -19 -59 -21 -2 -1 18 -30 44 -63 44 -58 48 -61 89 -61 52 0 177 31
266 66 91 35 197 109 249 173 l44 55 -7 110 c-22 340 -157 804 -274 937 -66
75 -307 168 -446 172 -65 2 -71 0 -83 -23 -12 -24 -11 -25 25 -33 144 -33 339
-112 371 -151 17 -20 11 -45 -14 -61 -17 -12 -32 -8 -112 31 -307 147 -689
147 -996 0 -80 -39 -95 -43 -112 -31 -25 16 -31 41 -14 61 32 39 227 118 371
151 36 8 37 9 25 33 -10 21 -20 25 -57 27 -25 1 -76 -5 -114 -13z m192 -682
c67 -48 90 -158 51 -239 -41 -84 -140 -118 -208 -71 -116 79 -116 238 -1 316
43 29 112 26 158 -6z m573 5 c88 -59 112 -184 51 -266 -36 -50 -82 -73 -133
-68 -93 8 -155 90 -147 192 11 129 134 206 229 142z"/>
</g>
</svg>
