<?xml version="1.0" standalone="no"?>
<!DOCTYPE svg PUBLIC "-//W3C//DTD SVG 20010904//EN"
 "http://www.w3.org/TR/2001/REC-SVG-20010904/DTD/svg10.dtd">
<svg version="1.0" xmlns="http://www.w3.org/2000/svg"
 width="215.000000pt" height="234.000000pt" viewBox="0 0 215.000000 234.000000"
 preserveAspectRatio="xMidYMid meet">

<g transform="translate(0.000000,234.000000) scale(0.100000,-0.100000)"
fill="#000000" stroke="none">
<path d="M985 2334 c-11 -2 -45 -9 -75 -15 -30 -6 -98 -31 -150 -56 -81 -39
-108 -59 -186 -137 -73 -74 -98 -107 -132 -176 -59 -120 -76 -193 -76 -325 1
-195 17 -235 259 -621 102 -163 184 -299 182 -301 -2 -2 -40 -10 -84 -18 -96
-16 -220 -57 -287 -93 -237 -129 -236 -351 4 -472 192 -96 524 -140 831 -110
392 39 619 165 619 343 0 88 -44 154 -144 219 -52 34 -251 108 -260 97 -2 -2
-30 -47 -63 -100 l-61 -96 84 -22 c103 -25 214 -75 214 -94 0 -31 -165 -90
-330 -118 -99 -17 -414 -17 -510 -1 -168 30 -350 97 -334 124 9 14 116 62 184
81 44 13 226 47 251 47 3 0 39 -54 79 -120 40 -67 74 -119 77 -116 5 5 459
755 565 935 48 82 92 170 110 225 28 81 31 104 31 206 1 137 -16 209 -75 330
-34 69 -58 102 -132 175 -141 141 -282 203 -471 210 -55 2 -109 2 -120 -1z
m201 -345 c151 -57 231 -232 174 -383 -81 -214 -350 -271 -503 -107 -116 124
-113 305 6 424 82 83 209 108 323 66z"/>
</g>
</svg>
