<?xml version="1.0" standalone="no"?>
<!DOCTYPE svg PUBLIC "-//W3C//DTD SVG 20010904//EN"
 "http://www.w3.org/TR/2001/REC-SVG-20010904/DTD/svg10.dtd">
<svg version="1.0" xmlns="http://www.w3.org/2000/svg"
 width="225.000000pt" height="225.000000pt" viewBox="0 0 225.000000 225.000000"
 preserveAspectRatio="xMidYMid meet">

<g transform="translate(0.000000,225.000000) scale(0.100000,-0.100000)"
fill="#000000" stroke="none">
<path d="M945 2235 c-489 -82 -857 -452 -931 -938 -30 -192 -6 -395 67 -582
218 -560 830 -846 1401 -655 336 113 589 362 701 690 45 133 61 233 62 385 0
201 -28 321 -122 509 -209 421 -704 670 -1178 591z m-183 -353 c25 -10 238
-323 238 -349 0 -16 -22 -39 -77 -81 l-78 -58 1 -55 c2 -113 135 -331 270
-441 76 -62 114 -81 141 -71 10 4 47 26 82 50 99 67 98 68 229 -112 138 -190
138 -192 47 -263 -55 -43 -76 -52 -136 -63 -115 -20 -249 14 -376 97 -190 125
-450 475 -549 739 -34 90 -38 112 -42 221 -7 190 21 260 138 345 65 48 81 53
112 41z"/>
</g>
</svg>
