<?xml version="1.0" standalone="no"?>
<!DOCTYPE svg PUBLIC "-//W3C//DTD SVG 20010904//EN"
 "http://www.w3.org/TR/2001/REC-SVG-20010904/DTD/svg10.dtd">
<svg version="1.0" xmlns="http://www.w3.org/2000/svg"
 width="225.000000pt" height="225.000000pt" viewBox="0 0 225.000000 225.000000"
 preserveAspectRatio="xMidYMid meet">

<g transform="translate(0.000000,225.000000) scale(0.100000,-0.100000)"
fill="#000000" stroke="none">
<path d="M948 2234 c-230 -35 -451 -148 -617 -315 -439 -438 -438 -1153 1
-1589 228 -227 534 -344 853 -327 427 23 802 284 971 676 77 177 109 401 85
584 -85 636 -663 1070 -1293 971z m802 -584 c11 -11 20 -26 20 -32 0 -7 -45
-233 -101 -503 -106 -511 -114 -535 -162 -535 -11 0 -93 54 -183 119 l-163
120 -84 -90 c-103 -108 -121 -113 -113 -31 3 31 8 103 12 158 l6 102 279 246
c153 136 279 251 279 257 0 5 -5 9 -11 9 -11 0 -635 -384 -657 -404 -9 -9 -3
-52 33 -210 25 -109 44 -200 42 -202 -10 -11 -28 34 -80 200 -31 98 -57 179
-59 180 -2 1 -70 22 -153 46 -82 24 -156 48 -162 53 -15 11 -17 36 -5 55 9 14
1196 481 1225 481 9 1 26 -8 37 -19z"/>
</g>
</svg>
