<?xml version="1.0" standalone="no"?>
<!DOCTYPE svg PUBLIC "-//W3C//DTD SVG 20010904//EN"
 "http://www.w3.org/TR/2001/REC-SVG-20010904/DTD/svg10.dtd">
<svg version="1.0" xmlns="http://www.w3.org/2000/svg"
 width="500.000000pt" height="500.000000pt" viewBox="0 0 500.000000 500.000000"
 preserveAspectRatio="xMidYMid meet">
<metadata>
Created by potrace 1.16, written by Peter Selinger 2001-2019
</metadata>
<g transform="translate(0.000000,500.000000) scale(0.100000,-0.100000)"
fill="#000000" stroke="none">
<path d="M1705 4279 c-401 -70 -803 -250 -926 -413 -130 -172 -318 -659 -428
-1108 -93 -377 -138 -685 -148 -994 l-6 -202 46 -69 c59 -88 199 -224 302
-291 231 -152 622 -285 881 -299 70 -4 97 -2 112 9 21 14 217 277 211 282 -2
1 -70 24 -150 50 -240 77 -498 209 -600 305 -41 40 -51 80 -29 122 12 21 60
49 85 49 9 0 64 -32 122 -70 265 -177 600 -291 990 -336 194 -23 606 -15 783
15 344 57 640 165 866 316 54 36 108 68 120 71 27 7 80 -19 94 -45 22 -42 12
-82 -29 -122 -102 -96 -360 -228 -600 -305 -80 -26 -148 -49 -150 -50 -6 -5
190 -268 211 -282 16 -12 41 -13 117 -9 271 17 645 145 883 303 97 65 238 202
295 287 l46 69 -6 202 c-16 513 -155 1152 -368 1688 -106 269 -204 433 -301
504 -210 154 -498 265 -844 324 -160 28 -225 27 -254 -3 -17 -17 -60 -106 -60
-123 0 -1 21 -5 46 -9 227 -34 564 -151 765 -266 100 -57 108 -65 116 -113 5
-31 1 -40 -31 -72 -45 -45 -64 -43 -174 21 -209 120 -517 217 -847 267 -138
20 -580 18 -720 -5 -328 -53 -612 -144 -819 -264 -101 -58 -136 -61 -178 -14
-25 28 -29 40 -25 68 8 48 17 56 116 112 215 121 521 227 769 266 47 8 47 7
16 81 -25 59 -50 74 -123 73 -36 0 -115 -9 -176 -20z m283 -1518 c65 -33 129
-103 165 -179 30 -63 32 -74 32 -182 0 -108 -2 -119 -32 -182 -35 -75 -100
-145 -165 -180 -36 -19 -59 -23 -133 -23 -75 0 -98 4 -140 24 -69 35 -131 100
-168 179 -30 63 -32 74 -32 182 0 109 2 119 32 183 40 84 113 158 185 186 72
29 193 25 256 -8z m1300 0 c65 -33 129 -103 165 -179 30 -63 32 -74 32 -182 0
-108 -2 -119 -32 -182 -35 -75 -100 -145 -165 -180 -36 -19 -59 -23 -133 -23
-75 0 -98 4 -140 24 -69 35 -131 100 -168 179 -30 63 -32 74 -32 182 0 109 2
119 32 183 40 84 113 158 185 186 72 29 193 25 256 -8z"/>
</g>
</svg>
