<?xml version="1.0" standalone="no"?>
<!DOCTYPE svg PUBLIC "-//W3C//DTD SVG 20010904//EN"
 "http://www.w3.org/TR/2001/REC-SVG-20010904/DTD/svg10.dtd">
<svg version="1.0" xmlns="http://www.w3.org/2000/svg"
 width="900.000000pt" height="900.000000pt" viewBox="0 0 900.000000 900.000000"
 preserveAspectRatio="xMidYMid meet">

<g transform="translate(0.000000,900.000000) scale(0.100000,-0.100000)"
fill="#000000" stroke="none">
<path d="M2960 7764 c-543 -128 -1078 -326 -1530 -567 -117 -62 -147 -83 -221
-157 -95 -95 -127 -151 -234 -415 -393 -962 -675 -2100 -846 -3415 -52 -396
-44 -507 49 -685 66 -125 227 -272 551 -503 431 -307 1007 -610 1448 -761 143
-49 263 -39 380 31 96 57 122 98 314 480 l178 356 83 -18 c276 -60 667 -111
970 -127 214 -12 722 -8 898 6 290 23 694 80 908 129 l43 10 179 -356 c100
-201 194 -375 214 -398 75 -87 203 -144 323 -144 76 0 163 27 402 127 517 215
1033 519 1456 856 206 165 283 256 336 396 50 134 55 237 25 486 -172 1396
-483 2648 -906 3636 -79 187 -117 246 -211 333 -156 144 -763 419 -1275 576
-244 76 -547 150 -634 157 -137 10 -244 -32 -339 -132 -65 -68 -83 -109 -125
-280 -19 -75 -36 -139 -39 -141 -3 -3 -50 1 -104 10 -104 16 -249 32 -423 46
-263 22 -798 -1 -1083 -46 -54 -9 -100 -14 -102 -12 -2 2 -20 66 -39 143 -43
166 -65 213 -126 279 -56 60 -101 89 -179 116 -86 29 -169 25 -341 -16z m278
-258 c49 -25 63 -53 97 -188 19 -73 33 -133 32 -134 -1 0 -49 -13 -108 -27
-446 -110 -1063 -382 -1128 -497 -25 -45 -27 -80 -4 -127 21 -46 67 -73 121
-73 35 0 64 11 140 56 388 222 906 392 1427 468 228 33 375 43 663 45 269 2
427 -8 667 -40 540 -73 1065 -242 1467 -473 75 -44 105 -56 138 -56 112 0 177
122 112 210 -29 40 -115 93 -287 179 -242 122 -527 227 -815 302 -69 18 -126
33 -127 34 -8 4 70 272 84 288 51 55 103 59 277 17 506 -120 1050 -323 1452
-541 180 -98 207 -136 349 -494 386 -974 671 -2158 816 -3395 25 -219 22 -287
-20 -375 -38 -82 -81 -129 -226 -244 -455 -364 -973 -662 -1534 -882 -140 -55
-194 -61 -246 -29 -27 17 -59 73 -194 340 -109 217 -157 322 -149 325 7 2 89
27 181 55 336 100 796 281 848 333 57 56 46 160 -20 204 -53 36 -99 30 -236
-28 -662 -282 -1369 -451 -2080 -497 -145 -9 -728 -9 -878 0 -720 46 -1473
231 -2131 523 -71 31 -123 34 -168 8 -65 -37 -86 -131 -43 -196 36 -56 490
-237 885 -353 85 -26 158 -48 162 -51 4 -2 -64 -148 -152 -323 -136 -271 -166
-322 -194 -339 -55 -35 -99 -30 -247 28 -539 212 -1043 498 -1488 845 -170
132 -227 189 -266 270 -49 98 -53 163 -25 391 162 1342 469 2579 877 3539 71
166 81 184 137 241 54 54 84 72 266 162 429 213 798 348 1275 469 181 45 249
53 293 30z"/>
<path d="M4441 6673 c-69 -36 -76 -55 -79 -236 -2 -144 -1 -166 16 -197 52
-95 192 -96 243 0 27 50 28 317 1 369 -35 70 -116 98 -181 64z"/>
<path d="M3684 6606 c-39 -17 -72 -59 -80 -101 -4 -22 7 -83 31 -184 34 -138
39 -153 71 -181 41 -35 72 -45 119 -36 48 9 93 50 105 97 10 34 6 60 -25 189
-39 160 -56 193 -111 216 -41 17 -70 17 -110 0z"/>
<path d="M5204 6606 c-53 -23 -70 -58 -109 -217 -39 -159 -39 -188 -3 -234 56
-71 150 -73 215 -3 28 30 97 307 88 354 -7 42 -41 83 -81 100 -41 17 -70 17
-110 0z"/>
<path d="M2943 6391 c-45 -28 -66 -65 -66 -114 0 -32 17 -75 72 -183 78 -155
97 -175 171 -181 79 -7 141 49 142 129 1 35 -13 72 -71 185 -47 93 -81 147
-98 159 -42 27 -111 29 -150 5z"/>
<path d="M5920 6392 c-29 -16 -47 -42 -109 -163 -80 -155 -91 -202 -57 -254
41 -62 131 -83 193 -45 42 25 176 285 176 341 0 107 -108 171 -203 121z"/>
<path d="M2944 5185 c-140 -30 -259 -95 -374 -202 -415 -388 -423 -1113 -18
-1513 154 -153 336 -230 537 -230 169 0 306 45 445 144 496 354 536 1187 79
1606 -186 171 -441 245 -669 195z m272 -279 c170 -45 330 -213 398 -416 71
-214 54 -446 -46 -650 -53 -106 -170 -229 -261 -273 -197 -95 -395 -60 -560
100 -226 219 -282 611 -132 920 38 77 61 110 123 172 79 79 164 133 238 150
60 14 183 12 240 -3z"/>
<path d="M5754 5185 c-237 -51 -454 -231 -576 -477 -135 -272 -148 -621 -33
-905 113 -281 349 -495 605 -549 93 -20 278 -14 360 11 344 106 589 436 631
850 51 504 -254 978 -690 1071 -82 17 -216 17 -297 -1z m350 -308 c116 -55
217 -159 280 -289 220 -452 -10 -1021 -434 -1072 -80 -9 -164 8 -257 54 -247
122 -395 466 -339 789 47 268 203 473 414 542 44 15 80 18 157 16 92 -2 106
-5 179 -40z"/>
<path d="M3175 1800 c-50 -24 -75 -65 -75 -120 0 -50 20 -91 55 -114 77 -50
641 -141 1025 -165 171 -11 678 -5 734 8 59 14 98 58 103 118 6 60 -14 105
-60 133 -29 18 -47 19 -337 13 -448 -8 -834 27 -1223 112 -87 19 -164 35 -170
35 -7 0 -30 -9 -52 -20z"/>
<path d="M5734 1814 c-6 -3 -96 -22 -201 -43 -105 -21 -202 -46 -216 -55 -30
-20 -57 -73 -57 -111 0 -41 30 -95 64 -116 18 -11 50 -19 76 -19 62 0 388 67
430 89 67 34 92 125 53 191 -27 46 -108 81 -149 64z"/>
</g>
</svg>
