<?xml version="1.0" standalone="no"?>
<!DOCTYPE svg PUBLIC "-//W3C//DTD SVG 20010904//EN"
 "http://www.w3.org/TR/2001/REC-SVG-20010904/DTD/svg10.dtd">
<svg version="1.0" xmlns="http://www.w3.org/2000/svg"
 width="1600.000000pt" height="1200.000000pt" viewBox="0 0 1600.000000 1200.000000"
 preserveAspectRatio="xMidYMid meet">

<g transform="translate(0.000000,1200.000000) scale(0.100000,-0.100000)"
fill="#000000" stroke="none">
<path d="M1575 10839 c-265 -28 -445 -161 -501 -372 -21 -77 -21 -8446 0
-8523 35 -132 129 -246 250 -303 91 -44 164 -60 316 -72 89 -6 2324 -9 6520
-7 6048 3 6389 4 6460 21 230 54 384 197 419 391 15 84 16 8378 0 8461 -43
233 -229 377 -524 405 -134 12 -12818 12 -12940 -1z m12549 -477 c3 -5 -941
-773 -2096 -1708 -1156 -934 -2532 -2047 -3057 -2471 -593 -481 -959 -769
-965 -764 -9 7 -4756 3844 -5808 4695 -163 132 -294 244 -292 248 7 11 12211
10 12218 0z m446 -4184 l0 -3903 -69 70 c-38 39 -570 583 -1182 1211 -613 627
-1539 1575 -2059 2107 -520 532 -945 972 -945 977 0 5 797 654 1770 1441 974
788 1928 1559 2120 1715 193 156 353 284 358 284 4 0 7 -1756 7 -3902z
m-10940 2159 c1136 -918 2072 -1676 2080 -1683 12 -12 -2 -30 -101 -131 -156
-159 -3150 -3227 -4015 -4113 l-54 -55 0 3833 c0 3064 3 3832 13 3826 6 -5
941 -759 2077 -1677z m3353 -2712 c480 -388 892 -716 917 -728 62 -30 167 -31
230 -1 25 12 438 339 917 728 480 388 876 706 881 706 5 0 60 -53 123 -117
102 -105 1241 -1272 3342 -3422 395 -404 713 -737 708 -740 -11 -7 -12169 -6
-12176 0 -2 3 343 361 768 796 2783 2850 3403 3483 3410 3483 5 0 401 -317
880 -705z"/>
</g>
</svg>
