<?xml version="1.0" standalone="no"?>
<!DOCTYPE svg PUBLIC "-//W3C//DTD SVG 20010904//EN"
 "http://www.w3.org/TR/2001/REC-SVG-20010904/DTD/svg10.dtd">
<svg version="1.0" xmlns="http://www.w3.org/2000/svg"
 width="512.000000pt" height="512.000000pt" viewBox="0 0 512.000000 512.000000"
 preserveAspectRatio="xMidYMid meet">

<g transform="translate(0.000000,512.000000) scale(0.100000,-0.100000)"
fill="#000000" stroke="none">
<path d="M1170 4665 c-105 -20 -243 -61 -298 -89 -125 -64 -311 -333 -388
-562 -39 -118 -54 -214 -54 -350 0 -184 28 -304 149 -631 131 -356 194 -494
311 -680 284 -452 819 -1002 1282 -1320 232 -159 393 -238 758 -373 366 -135
475 -162 660 -163 69 0 154 5 190 12 297 57 649 269 734 443 38 77 86 277 93
383 8 135 32 114 -432 370 -137 75 -300 170 -360 211 -126 83 -150 94 -209 94
-72 0 -157 -70 -294 -240 -223 -279 -276 -316 -390 -276 -49 18 -299 164 -437
256 -174 117 -286 209 -441 364 -208 209 -333 374 -516 686 -120 205 -136 255
-104 318 20 38 144 157 261 250 125 99 220 197 246 256 17 39 18 51 8 91 -7
26 -40 89 -75 140 -73 111 -137 220 -300 519 -65 120 -135 237 -155 259 -34
39 -39 41 -100 44 -35 1 -98 -4 -139 -12z"/>
</g>
</svg>
