<?xml version="1.0" standalone="no"?>
<!DOCTYPE svg PUBLIC "-//W3C//DTD SVG 20010904//EN"
 "http://www.w3.org/TR/2001/REC-SVG-20010904/DTD/svg10.dtd">
<svg version="1.0" xmlns="http://www.w3.org/2000/svg"
 width="225.000000pt" height="225.000000pt" viewBox="0 0 225.000000 225.000000"
 preserveAspectRatio="xMidYMid meet">

<g transform="translate(0.000000,225.000000) scale(0.100000,-0.100000)"
fill="#000000" stroke="none">
<path d="M2095 2046 c-22 -7 -177 -66 -345 -131 -168 -64 -422 -162 -565 -217
-143 -54 -455 -174 -692 -265 -261 -100 -443 -175 -458 -189 -30 -27 -32 -64
-6 -88 10 -10 141 -55 291 -102 l271 -85 32 19 c18 10 284 176 592 369 308
192 570 356 583 362 27 14 52 8 52 -12 0 -7 -77 -83 -172 -168 -95 -85 -310
-277 -478 -428 -168 -150 -308 -283 -312 -295 -9 -26 -40 -497 -34 -504 17
-16 74 25 199 143 78 75 148 133 154 130 7 -2 124 -86 260 -187 262 -192 312
-219 363 -198 41 17 63 69 99 240 17 80 94 441 171 802 77 361 140 680 140
707 0 87 -58 126 -145 97z"/>
</g>
</svg>
